<?xml version="1.0" encoding="UTF-8" standalone="no"?>
<!DOCTYPE svg PUBLIC "-//W3C//DTD SVG 1.1//EN"
 "http://www.w3.org/Graphics/SVG/1.1/DTD/svg11.dtd">
<!-- Generated by graphviz version 2.43.0 (0)
 -->
<!-- Title: bubble Pages: 1 -->
<svg width="910pt" height="260pt"
 viewBox="0.00 0.00 910.14 260.00" xmlns="http://www.w3.org/2000/svg" xmlns:xlink="http://www.w3.org/1999/xlink">
<g id="graph0" class="graph" transform="scale(1 1) rotate(0) translate(4 256)">
<title>bubble</title>
<polygon fill="white" stroke="transparent" points="-4,4 -4,-256 906.14,-256 906.14,4 -4,4"/>
<!-- init -->
<g id="node1" class="node">
<title>init</title>
<polygon fill="black" stroke="black" points="315.98,-198 261.98,-198 261.98,-162 315.98,-162 315.98,-198"/>
<text text-anchor="middle" x="288.98" y="-176.3" font-family="Times,serif" font-size="14.00" fill="white">init</text>
</g>
<!-- twa_manifest -->
<g id="node11" class="node">
<title>twa_manifest</title>
<ellipse fill="none" stroke="black" cx="471.37" cy="-234" rx="72.29" ry="18"/>
<text text-anchor="middle" x="471.37" y="-230.3" font-family="Times,serif" font-size="14.00">twaManifest.json</text>
</g>
<!-- init&#45;&gt;twa_manifest -->
<g id="edge3" class="edge">
<title>init&#45;&gt;twa_manifest</title>
<path fill="none" stroke="black" d="M316.21,-187.85C341.89,-195.54 381.83,-207.49 414.62,-217.31"/>
<polygon fill="black" stroke="black" points="413.96,-220.77 424.54,-220.28 415.96,-214.06 413.96,-220.77"/>
</g>
<!-- config -->
<g id="node12" class="node">
<title>config</title>
<ellipse fill="none" stroke="black" cx="471.37" cy="-130" rx="101.28" ry="18"/>
<text text-anchor="middle" x="471.37" y="-126.3" font-family="Times,serif" font-size="14.00">~/bubblewrap/config.json</text>
</g>
<!-- init&#45;&gt;config -->
<g id="edge2" class="edge">
<title>init&#45;&gt;config</title>
<path fill="none" stroke="black" d="M316.21,-172.73C339.67,-166.23 375.01,-156.43 405.94,-147.86"/>
<polygon fill="black" stroke="black" points="407.11,-151.17 415.81,-145.12 405.24,-144.42 407.11,-151.17"/>
</g>
<!-- project -->
<g id="node13" class="node">
<title>project</title>
<ellipse fill="none" stroke="black" cx="675.71" cy="-180" rx="66.89" ry="18"/>
<text text-anchor="middle" x="675.71" y="-176.3" font-family="Times,serif" font-size="14.00">Android project</text>
</g>
<!-- init&#45;&gt;project -->
<g id="edge4" class="edge">
<title>init&#45;&gt;project</title>
<path fill="none" stroke="black" d="M316.12,-180C373.31,-180 511.34,-180 598.51,-180"/>
<polygon fill="black" stroke="black" points="598.61,-183.5 608.61,-180 598.61,-176.5 598.61,-183.5"/>
</g>
<!-- build -->
<g id="node2" class="node">
<title>build</title>
<polygon fill="black" stroke="black" points="702.71,-144 648.71,-144 648.71,-108 702.71,-108 702.71,-144"/>
<text text-anchor="middle" x="675.71" y="-122.3" font-family="Times,serif" font-size="14.00" fill="white">build</text>
</g>
<!-- apk -->
<g id="node14" class="node">
<title>apk</title>
<ellipse fill="none" stroke="black" cx="840.4" cy="-126" rx="53.89" ry="18"/>
<text text-anchor="middle" x="840.4" y="-122.3" font-family="Times,serif" font-size="14.00">APK / AAB</text>
</g>
<!-- build&#45;&gt;apk -->
<g id="edge10" class="edge">
<title>build&#45;&gt;apk</title>
<path fill="none" stroke="black" d="M702.85,-126C722.67,-126 750.78,-126 776.34,-126"/>
<polygon fill="black" stroke="black" points="776.36,-129.5 786.36,-126 776.36,-122.5 776.36,-129.5"/>
</g>
<!-- assetlinks -->
<g id="node16" class="node">
<title>assetlinks</title>
<ellipse fill="none" stroke="black" cx="840.4" cy="-180" rx="61.99" ry="18"/>
<text text-anchor="middle" x="840.4" y="-176.3" font-family="Times,serif" font-size="14.00">assetlinks.json</text>
</g>
<!-- build&#45;&gt;assetlinks -->
<g id="edge11" class="edge">
<title>build&#45;&gt;assetlinks</title>
<path fill="none" stroke="black" d="M702.85,-134.68C726.07,-142.38 760.65,-153.86 789.2,-163.34"/>
<polygon fill="black" stroke="black" points="788.43,-166.77 799.02,-166.6 790.63,-160.13 788.43,-166.77"/>
</g>
<!-- update -->
<g id="node3" class="node">
<title>update</title>
<polygon fill="black" stroke="black" points="702.71,-252 648.71,-252 648.71,-216 702.71,-216 702.71,-252"/>
<text text-anchor="middle" x="675.71" y="-230.3" font-family="Times,serif" font-size="14.00" fill="white">update</text>
</g>
<!-- update&#45;&gt;project -->
<g id="edge8" class="edge">
<title>update&#45;&gt;project</title>
<path fill="none" stroke="black" d="M675.71,-215.79C675.71,-213.31 675.71,-210.83 675.71,-208.34"/>
<polygon fill="black" stroke="black" points="679.21,-208.14 675.71,-198.14 672.21,-208.14 679.21,-208.14"/>
</g>
<!-- merge -->
<g id="node4" class="node">
<title>merge</title>
<polygon fill="black" stroke="black" points="315.98,-252 261.98,-252 261.98,-216 315.98,-216 315.98,-252"/>
<text text-anchor="middle" x="288.98" y="-230.3" font-family="Times,serif" font-size="14.00" fill="white">merge</text>
</g>
<!-- merge&#45;&gt;twa_manifest -->
<g id="edge16" class="edge">
<title>merge&#45;&gt;twa_manifest</title>
<path fill="none" stroke="black" d="M316.21,-229.07C336.66,-227.62 366.16,-227.04 393.88,-227.32"/>
<polygon fill="black" stroke="black" points="393.94,-230.82 403.99,-227.46 394.04,-223.82 393.94,-230.82"/>
</g>
<!-- validate -->
<g id="node5" class="node">
<title>validate</title>
<polygon fill="black" stroke="black" points="133.49,-144 74.49,-144 74.49,-108 133.49,-108 133.49,-144"/>
<text text-anchor="middle" x="103.99" y="-122.3" font-family="Times,serif" font-size="14.00" fill="white">validate</text>
</g>
<!-- install -->
<g id="node6" class="node">
<title>install</title>
<polygon fill="black" stroke="black" points="867.4,-90 813.4,-90 813.4,-54 867.4,-54 867.4,-90"/>
<text text-anchor="middle" x="840.4" y="-68.3" font-family="Times,serif" font-size="14.00" fill="white">install</text>
</g>
<!-- installed -->
<g id="node15" class="node">
<title>installed</title>
<ellipse fill="none" stroke="black" cx="840.4" cy="-18" rx="60.39" ry="18"/>
<text text-anchor="middle" x="840.4" y="-14.3" font-family="Times,serif" font-size="14.00">Installed APK</text>
</g>
<!-- install&#45;&gt;installed -->
<g id="edge13" class="edge">
<title>install&#45;&gt;installed</title>
<path fill="none" stroke="black" d="M840.4,-53.79C840.4,-51.31 840.4,-48.83 840.4,-46.34"/>
<polygon fill="black" stroke="black" points="843.9,-46.14 840.4,-36.14 836.9,-46.14 843.9,-46.14"/>
</g>
<!-- doctor -->
<g id="node7" class="node">
<title>doctor</title>
<polygon fill="black" stroke="black" points="498.37,-94 444.37,-94 444.37,-58 498.37,-58 498.37,-94"/>
<text text-anchor="middle" x="471.37" y="-72.3" font-family="Times,serif" font-size="14.00" fill="white">doctor</text>
</g>
<!-- updateConfig -->
<g id="node8" class="node">
<title>updateConfig</title>
<polygon fill="black" stroke="black" points="333.98,-144 243.98,-144 243.98,-108 333.98,-108 333.98,-144"/>
<text text-anchor="middle" x="288.98" y="-122.3" font-family="Times,serif" font-size="14.00" fill="white">updateConfig</text>
</g>
<!-- updateConfig&#45;&gt;config -->
<g id="edge5" class="edge">
<title>updateConfig&#45;&gt;config</title>
<path fill="none" stroke="black" d="M334.11,-126.98C342.31,-127.16 351.2,-127.36 360.37,-127.56"/>
<polygon fill="black" stroke="black" points="360.35,-131.06 370.43,-127.78 360.51,-124.06 360.35,-131.06"/>
</g>
<!-- web_app_manifest -->
<g id="node9" class="node">
<title>web_app_manifest</title>
<ellipse fill="none" stroke="black" cx="103.99" cy="-180" rx="73.39" ry="18"/>
<text text-anchor="middle" x="103.99" y="-176.3" font-family="Times,serif" font-size="14.00">web app manifest</text>
</g>
<!-- web_app_manifest&#45;&gt;init -->
<g id="edge1" class="edge">
<title>web_app_manifest&#45;&gt;init</title>
<path fill="none" stroke="black" d="M177.58,-180C203.01,-180 230.49,-180 251.67,-180"/>
<polygon fill="black" stroke="black" points="251.83,-183.5 261.83,-180 251.83,-176.5 251.83,-183.5"/>
</g>
<!-- web_app_manifest&#45;&gt;validate -->
<g id="edge17" class="edge">
<title>web_app_manifest&#45;&gt;validate</title>
<path fill="none" stroke="black" d="M103.99,-161.79C103.99,-159.31 103.99,-156.83 103.99,-154.34"/>
<polygon fill="black" stroke="black" points="107.49,-154.14 103.99,-144.14 100.49,-154.14 107.49,-154.14"/>
</g>
<!-- updated_web_app_manifest -->
<g id="node10" class="node">
<title>updated_web_app_manifest</title>
<ellipse fill="none" stroke="black" cx="103.99" cy="-234" rx="103.98" ry="18"/>
<text text-anchor="middle" x="103.99" y="-230.3" font-family="Times,serif" font-size="14.00">updated web app manifest</text>
</g>
<!-- updated_web_app_manifest&#45;&gt;merge -->
<g id="edge14" class="edge">
<title>updated_web_app_manifest&#45;&gt;merge</title>
<path fill="none" stroke="black" d="M207.99,-234C223.6,-234 238.77,-234 251.62,-234"/>
<polygon fill="black" stroke="black" points="251.83,-237.5 261.83,-234 251.83,-230.5 251.83,-237.5"/>
</g>
<!-- twa_manifest&#45;&gt;update -->
<g id="edge7" class="edge">
<title>twa_manifest&#45;&gt;update</title>
<path fill="none" stroke="black" d="M543.71,-234C575.71,-234 612.08,-234 638.37,-234"/>
<polygon fill="black" stroke="black" points="638.62,-237.5 648.62,-234 638.62,-230.5 638.62,-237.5"/>
</g>
<!-- twa_manifest&#45;&gt;merge -->
<g id="edge15" class="edge">
<title>twa_manifest&#45;&gt;merge</title>
<path fill="none" stroke="black" d="M403.99,-240.54C377.7,-241.02 348.5,-240.68 326.23,-239.54"/>
<polygon fill="black" stroke="black" points="326.41,-236.04 316.21,-238.93 325.98,-243.03 326.41,-236.04"/>
</g>
<!-- config&#45;&gt;doctor -->
<g id="edge6" class="edge">
<title>config&#45;&gt;doctor</title>
<path fill="none" stroke="black" d="M471.37,-111.79C471.37,-109.31 471.37,-106.83 471.37,-104.34"/>
<polygon fill="black" stroke="black" points="474.87,-104.14 471.37,-94.14 467.87,-104.14 474.87,-104.14"/>
</g>
<!-- project&#45;&gt;build -->
<g id="edge9" class="edge">
<title>project&#45;&gt;build</title>
<path fill="none" stroke="black" d="M675.71,-161.79C675.71,-159.31 675.71,-156.83 675.71,-154.34"/>
<polygon fill="black" stroke="black" points="679.21,-154.14 675.71,-144.14 672.21,-154.14 679.21,-154.14"/>
</g>
<!-- project&#45;&gt;assetlinks -->
<g id="edge18" class="edge">
<title>project&#45;&gt;assetlinks</title>
</g>
<!-- apk&#45;&gt;install -->
<g id="edge12" class="edge">
<title>apk&#45;&gt;install</title>
<path fill="none" stroke="black" d="M840.4,-107.79C840.4,-105.31 840.4,-102.83 840.4,-100.34"/>
<polygon fill="black" stroke="black" points="843.9,-100.14 840.4,-90.14 836.9,-100.14 843.9,-100.14"/>
</g>
<!-- assetlinks&#45;&gt;apk -->
<g id="edge19" class="edge">
<title>assetlinks&#45;&gt;apk</title>
</g>
</g>
</svg>
